<svg width="16" height="16" viewBox="0 0 16 16" fill="none" xmlns="http://www.w3.org/2000/svg">
<path d="M1.77778 16C1.28889 16 0.870222 15.8261 0.521778 15.4782C0.173926 15.1298 0 14.7111 0 14.2222V5.33333C0 3.85185 0.518519 2.59259 1.55556 1.55556C2.59259 0.518519 3.85185 0 5.33333 0H10.6667C12.1481 0 13.4074 0.518519 14.4444 1.55556C15.4815 2.59259 16 3.85185 16 5.33333V14.2222C16 14.7111 15.8261 15.1298 15.4782 15.4782C15.1298 15.8261 14.7111 16 14.2222 16H1.77778ZM1.77778 14.2222H14.2222V5.33333C14.2222 4.35556 13.8741 3.51852 13.1778 2.82222C12.4815 2.12593 11.6444 1.77778 10.6667 1.77778H5.33333C4.35556 1.77778 3.51852 2.12593 2.82222 2.82222C2.12593 3.51852 1.77778 4.35556 1.77778 5.33333V14.2222ZM5.33333 8C4.84444 8 4.42607 7.82578 4.07822 7.47733C3.72978 7.12948 3.55556 6.71111 3.55556 6.22222C3.55556 5.73333 3.72978 5.31467 4.07822 4.96622C4.42607 4.61837 4.84444 4.44444 5.33333 4.44444C5.82222 4.44444 6.24089 4.61837 6.58933 4.96622C6.93719 5.31467 7.11111 5.73333 7.11111 6.22222C7.11111 6.71111 6.93719 7.12948 6.58933 7.47733C6.24089 7.82578 5.82222 8 5.33333 8ZM10.6667 8C10.1778 8 9.75941 7.82578 9.41156 7.47733C9.06311 7.12948 8.88889 6.71111 8.88889 6.22222C8.88889 5.73333 9.06311 5.31467 9.41156 4.96622C9.75941 4.61837 10.1778 4.44444 10.6667 4.44444C11.1556 4.44444 11.5742 4.61837 11.9227 4.96622C12.2705 5.31467 12.4444 5.73333 12.4444 6.22222C12.4444 6.71111 12.2705 7.12948 11.9227 7.47733C11.5742 7.82578 11.1556 8 10.6667 8ZM3.55556 14.2222V12.4444C3.55556 11.9556 3.72978 11.5372 4.07822 11.1893C4.42607 10.8409 4.84444 10.6667 5.33333 10.6667H10.6667C11.1556 10.6667 11.5742 10.8409 11.9227 11.1893C12.2705 11.5372 12.4444 11.9556 12.4444 12.4444V14.2222H10.6667V12.4444H8.88889V14.2222H7.11111V12.4444H5.33333V14.2222H3.55556Z" fill="#D50000"/>
</svg>
